<?xml version="1.0" encoding="UTF-8" standalone="no"?>
<!-- Created with Inkscape (http://www.inkscape.org/) -->

<svg
   xmlns:dc="http://purl.org/dc/elements/1.1/"
   xmlns:cc="http://creativecommons.org/ns#"
   xmlns:rdf="http://www.w3.org/1999/02/22-rdf-syntax-ns#"
   xmlns:svg="http://www.w3.org/2000/svg"
   xmlns="http://www.w3.org/2000/svg"
   xmlns:sodipodi="http://sodipodi.sourceforge.net/DTD/sodipodi-0.dtd"
   xmlns:inkscape="http://www.inkscape.org/namespaces/inkscape"
   width="135.37877mm"
   height="133.99078mm"
   viewBox="0 0 479.68855 474.77049"
   id="svg2"
   version="1.1"
   inkscape:version="0.91 r13725"
   sodipodi:docname="prenom.svg">
  <defs
     id="defs4" />
  <sodipodi:namedview
     id="base"
     pagecolor="#ffffff"
     bordercolor="#666666"
     borderopacity="1.0"
     inkscape:pageopacity="0.0"
     inkscape:pageshadow="2"
     inkscape:zoom="0.83972969"
     inkscape:cx="196.02806"
     inkscape:cy="138.03004"
     inkscape:document-units="px"
     inkscape:current-layer="layer1"
     showgrid="false"
     fit-margin-top="0"
     fit-margin-left="0"
     fit-margin-right="0"
     fit-margin-bottom="0"
     inkscape:window-width="1301"
     inkscape:window-height="744"
     inkscape:window-x="65"
     inkscape:window-y="24"
     inkscape:window-maximized="1"
     showguides="true" />
  <metadata
     id="metadata7">
    <rdf:RDF>
      <cc:Work
         rdf:about="">
        <dc:format>image/svg+xml</dc:format>
        <dc:type
           rdf:resource="http://purl.org/dc/dcmitype/StillImage" />
        <dc:title />
      </cc:Work>
    </rdf:RDF>
  </metadata>
  <g
     inkscape:label="Calque 1"
     inkscape:groupmode="layer"
     id="layer1"
     transform="translate(-145.40165,-201.04255)"
     style="display:inline">
    <path
       style="fill:none;fill-opacity:1;stroke:none;stroke-width:1.63934422;stroke-linejoin:round;stroke-miterlimit:4;stroke-dasharray:none;stroke-opacity:1"
       d="M 365.48302,674.82945 C 282.62531,667.95422 209.06126,618.3994 171.86678,544.40411 c -8.67444,-17.25708 -15.92254,-38.17461 -20.29122,-58.55908 -4.76409,-22.22951 -5.16001,-65.10443 -0.80518,-87.19412 6.29723,-31.94238 17.0423,-59.2307 32.9772,-83.74929 36.13275,-55.59649 88.82951,-91.86578 153.8646,-105.89949 23.93461,-5.16477 71.7494,-5.209 94.87077,-0.0877 31.91292,7.06852 61.49881,19.51522 87.37154,36.75698 16.87361,11.24468 44.20258,37.56658 57.50133,55.38241 20.76098,27.81269 36.45276,64.35238 42.61656,99.23648 3.83457,21.70178 3.86339,58.48353 0.0621,79.39907 -11.9273,65.62843 -49.44198,121.99716 -105.06434,157.86731 -43.43127,28.00826 -97.79155,41.56235 -149.48722,37.27282 l 7e-5,0 z m 68.33967,-21.85598 C 519.59923,633.02893 583.2923,568.05698 601.9819,481.4378 c 3.9621,-18.36287 4.81699,-54.72733 1.75351,-74.59017 -5.37844,-34.87246 -18.8172,-68.23147 -38.76106,-96.21658 -12.33587,-17.30962 -37.41809,-41.98687 -54.12748,-53.25358 -26.6728,-17.98477 -57.95421,-30.55451 -89.36216,-35.90819 -23.9092,-4.07547 -66.04758,-2.54138 -88.96792,3.23898 -80.81799,20.38175 -141.65859,81.22665 -161.96958,161.98101 -5.76362,22.91556 -7.22977,61.59007 -3.28021,86.52654 10.21666,64.50541 49.36372,121.31512 107.32575,155.74972 21.29428,12.65071 54.91042,24.12056 81.36109,27.76051 19.54321,2.68938 58.1691,0.82797 77.86885,-3.75257 z"
       id="path4142"
       inkscape:connector-curvature="0" />
    <path
       style="fill:none;fill-opacity:0.44444445;stroke:none;stroke-width:1.63934422;stroke-linejoin:round;stroke-miterlimit:4;stroke-dasharray:none;stroke-opacity:1"
       d="m 346.20767,652.56278 c -49.13,-8.86915 -96.65549,-36.70753 -128.59896,-75.32771 -73.41922,-88.76506 -66.38172,-215.4593 16.38065,-294.89662 31.27084,-30.0145 66.19348,-48.35673 109.6694,-57.60106 19.15024,-4.07194 62.33472,-4.16099 82.31116,-0.16973 29.15874,5.82587 55.49444,16.71603 80.20226,33.16468 114.63805,76.31765 130.59561,236.91439 33.20697,334.19473 -31.901,31.86553 -73.25615,53.23645 -117.65644,60.80084 -18.26841,3.11234 -57.83899,3.0258 -75.51504,-0.16513 z"
       id="path4144"
       inkscape:connector-curvature="0" />
    <text
       xml:space="preserve"
       style="font-style:normal;font-variant:normal;font-weight:normal;font-stretch:semi-condensed;font-size:410.11846924px;line-height:125%;font-family:Symbola;-inkscape-font-specification:'Symbola Semi-Condensed';letter-spacing:0px;word-spacing:0px;fill:#000000;fill-opacity:1;stroke:none;stroke-width:1px;stroke-linecap:butt;stroke-linejoin:miter;stroke-opacity:1"
       x="139.69455"
       y="523.52643"
       id="text4145"
       sodipodi:linespacing="125%"
       transform="scale(0.90815055,1.101139)"><tspan
         sodipodi:role="line"
         id="tspan4147"
         x="139.69455"
         y="523.52643"
         style="font-style:normal;font-variant:normal;font-weight:normal;font-stretch:normal;font-family:STIXSizeFiveSym;-inkscape-font-specification:STIXSizeFiveSym">S<tspan
   style="font-style:normal;font-variant:normal;font-weight:normal;font-stretch:normal;font-family:STIXSizeFiveSym;-inkscape-font-specification:STIXSizeFiveSym;fill:#f05184;fill-opacity:1"
   id="tspan4145">G</tspan></tspan><tspan
         sodipodi:role="line"
         x="139.69455"
         y="1003.0302"
         id="tspan4143" /></text>
  </g>
</svg>
